<?xml version="1.0" standalone="no"?>
<!DOCTYPE svg PUBLIC "-//W3C//DTD SVG 1.1//EN" "http://www.w3.org/Graphics/SVG/1.1/DTD/svg11.dtd">
<svg version="1.1" width="1200" height="310" onload="init(evt)" viewBox="0 0 1200 310" xmlns="http://www.w3.org/2000/svg" xmlns:xlink="http://www.w3.org/1999/xlink">
<!-- Flame graph stack visualization. See https://github.com/brendangregg/FlameGraph for latest version, and http://www.brendangregg.com/flamegraphs.html for examples. -->
<!-- NOTES:  -->
<defs>
	<linearGradient id="background" y1="0" y2="1" x1="0" x2="0" >
		<stop stop-color="#eeeeee" offset="5%" />
		<stop stop-color="#eeeeb0" offset="95%" />
	</linearGradient>
</defs>
<style type="text/css">
	text { font-family:Verdana; font-size:12px; fill:rgb(0,0,0); }
	#search, #ignorecase { opacity:0.1; cursor:pointer; }
	#search:hover, #search.show, #ignorecase:hover, #ignorecase.show { opacity:1; }
	#subtitle { text-anchor:middle; font-color:rgb(160,160,160); }
	#title { text-anchor:middle; font-size:17px}
	#unzoom { cursor:pointer; }
	#frames > *:hover { stroke:black; stroke-width:0.5; cursor:pointer; }
	.hide { display:none; }
	.parent { opacity:0.5; }
</style>
<script type="text/ecmascript">
<![CDATA[
	"use strict";
	var details, searchbtn, unzoombtn, matchedtxt, svg, searching, currentSearchTerm, ignorecase, ignorecaseBtn;
	function init(evt) {
		details = document.getElementById("details").firstChild;
		searchbtn = document.getElementById("search");
		ignorecaseBtn = document.getElementById("ignorecase");
		unzoombtn = document.getElementById("unzoom");
		matchedtxt = document.getElementById("matched");
		svg = document.getElementsByTagName("svg")[0];
		searching = 0;
		currentSearchTerm = null;

		// use GET parameters to restore a flamegraphs state.
		var params = get_params();
		if (params.x && params.y)
			zoom(find_group(document.querySelector('[x="' + params.x + '"][y="' + params.y + '"]')));
                if (params.s) search(params.s);
	}

	// event listeners
	window.addEventListener("click", function(e) {
		var target = find_group(e.target);
		if (target) {
			if (target.nodeName == "a") {
				if (e.ctrlKey === false) return;
				e.preventDefault();
			}
			if (target.classList.contains("parent")) unzoom(true);
			zoom(target);
			if (!document.querySelector('.parent')) {
				// we have basically done a clearzoom so clear the url
				var params = get_params();
				if (params.x) delete params.x;
				if (params.y) delete params.y;
				history.replaceState(null, null, parse_params(params));
				unzoombtn.classList.add("hide");
				return;
			}

			// set parameters for zoom state
			var el = target.querySelector("rect");
			if (el && el.attributes && el.attributes.y && el.attributes._orig_x) {
				var params = get_params()
				params.x = el.attributes._orig_x.value;
				params.y = el.attributes.y.value;
				history.replaceState(null, null, parse_params(params));
			}
		}
		else if (e.target.id == "unzoom") clearzoom();
		else if (e.target.id == "search") search_prompt();
		else if (e.target.id == "ignorecase") toggle_ignorecase();
	}, false)

	// mouse-over for info
	// show
	window.addEventListener("mouseover", function(e) {
		var target = find_group(e.target);
		if (target) details.nodeValue = "Function: " + g_to_text(target);
	}, false)

	// clear
	window.addEventListener("mouseout", function(e) {
		var target = find_group(e.target);
		if (target) details.nodeValue = ' ';
	}, false)

	// ctrl-F for search
	// ctrl-I to toggle case-sensitive search
	window.addEventListener("keydown",function (e) {
		if (e.keyCode === 114 || (e.ctrlKey && e.keyCode === 70)) {
			e.preventDefault();
			search_prompt();
		}
		else if (e.ctrlKey && e.keyCode === 73) {
			e.preventDefault();
			toggle_ignorecase();
		}
	}, false)

	// functions
	function get_params() {
		var params = {};
		var paramsarr = window.location.search.substr(1).split('&');
		for (var i = 0; i < paramsarr.length; ++i) {
			var tmp = paramsarr[i].split("=");
			if (!tmp[0] || !tmp[1]) continue;
			params[tmp[0]]  = decodeURIComponent(tmp[1]);
		}
		return params;
	}
	function parse_params(params) {
		var uri = "?";
		for (var key in params) {
			uri += key + '=' + encodeURIComponent(params[key]) + '&';
		}
		if (uri.slice(-1) == "&")
			uri = uri.substring(0, uri.length - 1);
		if (uri == '?')
			uri = window.location.href.split('?')[0];
		return uri;
	}
	function find_child(node, selector) {
		var children = node.querySelectorAll(selector);
		if (children.length) return children[0];
	}
	function find_group(node) {
		var parent = node.parentElement;
		if (!parent) return;
		if (parent.id == "frames") return node;
		return find_group(parent);
	}
	function orig_save(e, attr, val) {
		if (e.attributes["_orig_" + attr] != undefined) return;
		if (e.attributes[attr] == undefined) return;
		if (val == undefined) val = e.attributes[attr].value;
		e.setAttribute("_orig_" + attr, val);
	}
	function orig_load(e, attr) {
		if (e.attributes["_orig_"+attr] == undefined) return;
		e.attributes[attr].value = e.attributes["_orig_" + attr].value;
		e.removeAttribute("_orig_"+attr);
	}
	function g_to_text(e) {
		var text = find_child(e, "title").firstChild.nodeValue;
		return (text)
	}
	function g_to_func(e) {
		var func = g_to_text(e);
		// if there's any manipulation we want to do to the function
		// name before it's searched, do it here before returning.
		return (func);
	}
	function update_text(e) {
		var r = find_child(e, "rect");
		var t = find_child(e, "text");
		var w = parseFloat(r.attributes.width.value) -3;
		var txt = find_child(e, "title").textContent.replace(/\([^(]*\)$/,"");
		t.attributes.x.value = parseFloat(r.attributes.x.value) + 3;

		// Smaller than this size won't fit anything
		if (w < 2 * 12 * 0.59) {
			t.textContent = "";
			return;
		}

		t.textContent = txt;
		var sl = t.getSubStringLength(0, txt.length);
		// check if only whitespace or if we can fit the entire string into width w
		if (/^ *$/.test(txt) || sl < w)
			return;

		// this isn't perfect, but gives a good starting point
		// and avoids calling getSubStringLength too often
		var start = Math.floor((w/sl) * txt.length);
		for (var x = start; x > 0; x = x-2) {
			if (t.getSubStringLength(0, x + 2) <= w) {
				t.textContent = txt.substring(0, x) + "..";
				return;
			}
		}
		t.textContent = "";
	}

	// zoom
	function zoom_reset(e) {
		if (e.attributes != undefined) {
			orig_load(e, "x");
			orig_load(e, "width");
		}
		if (e.childNodes == undefined) return;
		for (var i = 0, c = e.childNodes; i < c.length; i++) {
			zoom_reset(c[i]);
		}
	}
	function zoom_child(e, x, ratio) {
		if (e.attributes != undefined) {
			if (e.attributes.x != undefined) {
				orig_save(e, "x");
				e.attributes.x.value = (parseFloat(e.attributes.x.value) - x - 10) * ratio + 10;
				if (e.tagName == "text")
					e.attributes.x.value = find_child(e.parentNode, "rect[x]").attributes.x.value + 3;
			}
			if (e.attributes.width != undefined) {
				orig_save(e, "width");
				e.attributes.width.value = parseFloat(e.attributes.width.value) * ratio;
			}
		}

		if (e.childNodes == undefined) return;
		for (var i = 0, c = e.childNodes; i < c.length; i++) {
			zoom_child(c[i], x - 10, ratio);
		}
	}
	function zoom_parent(e) {
		if (e.attributes) {
			if (e.attributes.x != undefined) {
				orig_save(e, "x");
				e.attributes.x.value = 10;
			}
			if (e.attributes.width != undefined) {
				orig_save(e, "width");
				e.attributes.width.value = parseInt(svg.width.baseVal.value) - (10 * 2);
			}
		}
		if (e.childNodes == undefined) return;
		for (var i = 0, c = e.childNodes; i < c.length; i++) {
			zoom_parent(c[i]);
		}
	}
	function zoom(node) {
		var attr = find_child(node, "rect").attributes;
		var width = parseFloat(attr.width.value);
		var xmin = parseFloat(attr.x.value);
		var xmax = parseFloat(xmin + width);
		var ymin = parseFloat(attr.y.value);
		var ratio = (svg.width.baseVal.value - 2 * 10) / width;

		// XXX: Workaround for JavaScript float issues (fix me)
		var fudge = 0.0001;

		unzoombtn.classList.remove("hide");

		var el = document.getElementById("frames").children;
		for (var i = 0; i < el.length; i++) {
			var e = el[i];
			var a = find_child(e, "rect").attributes;
			var ex = parseFloat(a.x.value);
			var ew = parseFloat(a.width.value);
			var upstack;
			// Is it an ancestor
			if (0 == 0) {
				upstack = parseFloat(a.y.value) > ymin;
			} else {
				upstack = parseFloat(a.y.value) < ymin;
			}
			if (upstack) {
				// Direct ancestor
				if (ex <= xmin && (ex+ew+fudge) >= xmax) {
					e.classList.add("parent");
					zoom_parent(e);
					update_text(e);
				}
				// not in current path
				else
					e.classList.add("hide");
			}
			// Children maybe
			else {
				// no common path
				if (ex < xmin || ex + fudge >= xmax) {
					e.classList.add("hide");
				}
				else {
					zoom_child(e, xmin, ratio);
					update_text(e);
				}
			}
		}
		search();
	}
	function unzoom(dont_update_text) {
		unzoombtn.classList.add("hide");
		var el = document.getElementById("frames").children;
		for(var i = 0; i < el.length; i++) {
			el[i].classList.remove("parent");
			el[i].classList.remove("hide");
			zoom_reset(el[i]);
			if(!dont_update_text) update_text(el[i]);
		}
		search();
	}
	function clearzoom() {
		unzoom();

		// remove zoom state
		var params = get_params();
		if (params.x) delete params.x;
		if (params.y) delete params.y;
		history.replaceState(null, null, parse_params(params));
	}

	// search
	function toggle_ignorecase() {
		ignorecase = !ignorecase;
		if (ignorecase) {
			ignorecaseBtn.classList.add("show");
		} else {
			ignorecaseBtn.classList.remove("show");
		}
		reset_search();
		search();
	}
	function reset_search() {
		var el = document.querySelectorAll("#frames rect");
		for (var i = 0; i < el.length; i++) {
			orig_load(el[i], "fill")
		}
		var params = get_params();
		delete params.s;
		history.replaceState(null, null, parse_params(params));
	}
	function search_prompt() {
		if (!searching) {
			var term = prompt("Enter a search term (regexp " +
			    "allowed, eg: ^ext4_)"
			    + (ignorecase ? ", ignoring case" : "")
			    + "\nPress Ctrl-i to toggle case sensitivity", "");
			if (term != null) search(term);
		} else {
			reset_search();
			searching = 0;
			currentSearchTerm = null;
			searchbtn.classList.remove("show");
			searchbtn.firstChild.nodeValue = "Search"
			matchedtxt.classList.add("hide");
			matchedtxt.firstChild.nodeValue = ""
		}
	}
	function search(term) {
		if (term) currentSearchTerm = term;
		if (currentSearchTerm === null) return;

		var re = new RegExp(currentSearchTerm, ignorecase ? 'i' : '');
		var el = document.getElementById("frames").children;
		var matches = new Object();
		var maxwidth = 0;
		for (var i = 0; i < el.length; i++) {
			var e = el[i];
			var func = g_to_func(e);
			var rect = find_child(e, "rect");
			if (func == null || rect == null)
				continue;

			// Save max width. Only works as we have a root frame
			var w = parseFloat(rect.attributes.width.value);
			if (w > maxwidth)
				maxwidth = w;

			if (func.match(re)) {
				// highlight
				var x = parseFloat(rect.attributes.x.value);
				orig_save(rect, "fill");
				rect.attributes.fill.value = "rgb(230,0,230)";

				// remember matches
				if (matches[x] == undefined) {
					matches[x] = w;
				} else {
					if (w > matches[x]) {
						// overwrite with parent
						matches[x] = w;
					}
				}
				searching = 1;
			}
		}
		if (!searching)
			return;
		var params = get_params();
		params.s = currentSearchTerm;
		history.replaceState(null, null, parse_params(params));

		searchbtn.classList.add("show");
		searchbtn.firstChild.nodeValue = "Reset Search";

		// calculate percent matched, excluding vertical overlap
		var count = 0;
		var lastx = -1;
		var lastw = 0;
		var keys = Array();
		for (k in matches) {
			if (matches.hasOwnProperty(k))
				keys.push(k);
		}
		// sort the matched frames by their x location
		// ascending, then width descending
		keys.sort(function(a, b){
			return a - b;
		});
		// Step through frames saving only the biggest bottom-up frames
		// thanks to the sort order. This relies on the tree property
		// where children are always smaller than their parents.
		var fudge = 0.0001;	// JavaScript floating point
		for (var k in keys) {
			var x = parseFloat(keys[k]);
			var w = matches[keys[k]];
			if (x >= lastx + lastw - fudge) {
				count += w;
				lastx = x;
				lastw = w;
			}
		}
		// display matched percent
		matchedtxt.classList.remove("hide");
		var pct = 100 * count / maxwidth;
		if (pct != 100) pct = pct.toFixed(1)
		matchedtxt.firstChild.nodeValue = "Matched: " + pct + "%";
	}
]]>
</script>
<rect x="0.0" y="0" width="1200.0" height="310.0" fill="url(#background)"  />
<text id="title" x="600.00" y="24" >Flame Graph</text>
<text id="details" x="10.00" y="293" > </text>
<text id="unzoom" x="10.00" y="24" class="hide">Reset Zoom</text>
<text id="search" x="1090.00" y="24" >Search</text>
<text id="ignorecase" x="1174.00" y="24" >ic</text>
<text id="matched" x="1090.00" y="293" > </text>
<g id="frames">
<g >
<title>os.(*File).write (9 samples, 16.67%)</title><rect x="425.2" y="85" width="196.7" height="15.0" fill="rgb(248,201,48)" rx="2" ry="2" />
<text  x="428.19" y="95.5" >os.(*File).write</text>
</g>
<g >
<title>syscall.syscall (1 samples, 1.85%)</title><rect x="10.0" y="85" width="21.9" height="15.0" fill="rgb(208,16,3)" rx="2" ry="2" />
<text  x="13.00" y="95.5" >s..</text>
</g>
<g >
<title>runtime.semawakeup (2 samples, 3.70%)</title><rect x="1102.6" y="133" width="43.7" height="15.0" fill="rgb(234,137,32)" rx="2" ry="2" />
<text  x="1105.59" y="143.5" >runt..</text>
</g>
<g >
<title>runtime.kevent (3 samples, 5.56%)</title><rect x="796.7" y="165" width="65.5" height="15.0" fill="rgb(211,27,6)" rx="2" ry="2" />
<text  x="799.67" y="175.5" >runtime..</text>
</g>
<g >
<title>runtime.park_m (13 samples, 24.07%)</title><rect x="862.2" y="229" width="284.1" height="15.0" fill="rgb(233,132,31)" rx="2" ry="2" />
<text  x="865.22" y="239.5" >runtime.park_m</text>
</g>
<g >
<title>runtime.pthread_cond_wait (2 samples, 3.70%)</title><rect x="753.0" y="133" width="43.7" height="15.0" fill="rgb(209,21,5)" rx="2" ry="2" />
<text  x="755.96" y="143.5" >runt..</text>
</g>
<g >
<title>internal/poll.(*FD).decref (4 samples, 7.41%)</title><rect x="250.4" y="149" width="87.4" height="15.0" fill="rgb(245,188,45)" rx="2" ry="2" />
<text  x="253.37" y="159.5" >internal/p..</text>
</g>
<g >
<title>runtime.semasleep (2 samples, 3.70%)</title><rect x="753.0" y="149" width="43.7" height="15.0" fill="rgb(234,134,32)" rx="2" ry="2" />
<text  x="755.96" y="159.5" >runt..</text>
</g>
<g >
<title>runtime.gcDrain (1 samples, 1.85%)</title><rect x="1146.3" y="213" width="21.8" height="15.0" fill="rgb(233,130,31)" rx="2" ry="2" />
<text  x="1149.30" y="223.5" >r..</text>
</g>
<g >
<title>syscall.syscall6 (3 samples, 5.56%)</title><rect x="75.6" y="101" width="65.5" height="15.0" fill="rgb(209,21,5)" rx="2" ry="2" />
<text  x="78.56" y="111.5" >syscall..</text>
</g>
<g >
<title>runtime.runqgrab (2 samples, 3.70%)</title><rect x="1058.9" y="149" width="43.7" height="15.0" fill="rgb(235,138,33)" rx="2" ry="2" />
<text  x="1061.89" y="159.5" >runt..</text>
</g>
<g >
<title>all (54 samples, 100%)</title><rect x="10.0" y="261" width="1180.0" height="15.0" fill="rgb(213,39,9)" rx="2" ry="2" />
<text  x="13.00" y="271.5" ></text>
</g>
<g >
<title>net/http.serverHandler.ServeHTTP (11 samples, 20.37%)</title><rect x="381.5" y="229" width="240.4" height="15.0" fill="rgb(234,135,32)" rx="2" ry="2" />
<text  x="384.48" y="239.5" >net/http.serverHandler.ServeHTTP</text>
</g>
<g >
<title>internal/stringslite.HasSuffix (1 samples, 1.85%)</title><rect x="163.0" y="181" width="21.8" height="15.0" fill="rgb(249,204,48)" rx="2" ry="2" />
<text  x="165.96" y="191.5" >i..</text>
</g>
<g >
<title>net.(*netFD).accept (1 samples, 1.85%)</title><rect x="10.0" y="165" width="21.9" height="15.0" fill="rgb(227,103,24)" rx="2" ry="2" />
<text  x="13.00" y="175.5" >n..</text>
</g>
<g >
<title>runtime.findRunnable (5 samples, 9.26%)</title><rect x="753.0" y="197" width="109.2" height="15.0" fill="rgb(219,64,15)" rx="2" ry="2" />
<text  x="755.96" y="207.5" >runtime.findR..</text>
</g>
<g >
<title>internal/poll.(*FD).Accept (1 samples, 1.85%)</title><rect x="10.0" y="149" width="21.9" height="15.0" fill="rgb(207,11,2)" rx="2" ry="2" />
<text  x="13.00" y="159.5" >i..</text>
</g>
<g >
<title>syscall.write (2 samples, 3.70%)</title><rect x="337.8" y="133" width="43.7" height="15.0" fill="rgb(252,217,51)" rx="2" ry="2" />
<text  x="340.78" y="143.5" >sysc..</text>
</g>
<g >
<title>syscall.read (3 samples, 5.56%)</title><rect x="184.8" y="69" width="65.6" height="15.0" fill="rgb(226,96,23)" rx="2" ry="2" />
<text  x="187.81" y="79.5" >syscall..</text>
</g>
<g >
<title>net.(*netFD).init (1 samples, 1.85%)</title><rect x="31.9" y="165" width="21.8" height="15.0" fill="rgb(241,169,40)" rx="2" ry="2" />
<text  x="34.85" y="175.5" >n..</text>
</g>
<g >
<title>net/http.(*conn).close (4 samples, 7.41%)</title><rect x="250.4" y="213" width="87.4" height="15.0" fill="rgb(237,148,35)" rx="2" ry="2" />
<text  x="253.37" y="223.5" >net/http.(..</text>
</g>
<g >
<title>bufio.(*Writer).Flush (2 samples, 3.70%)</title><rect x="337.8" y="213" width="43.7" height="15.0" fill="rgb(246,189,45)" rx="2" ry="2" />
<text  x="340.78" y="223.5" >bufi..</text>
</g>
<g >
<title>go.uber.org/zap.(*Logger).Info (11 samples, 20.37%)</title><rect x="381.5" y="149" width="240.4" height="15.0" fill="rgb(223,86,20)" rx="2" ry="2" />
<text  x="384.48" y="159.5" >go.uber.org/zap.(*Logger).Info</text>
</g>
<g >
<title>net/http.(*Server).Serve (6 samples, 11.11%)</title><rect x="10.0" y="213" width="131.1" height="15.0" fill="rgb(248,200,48)" rx="2" ry="2" />
<text  x="13.00" y="223.5" >net/http.(*Serve..</text>
</g>
<g >
<title>net.(*TCPConn).SetKeepAliveConfig (1 samples, 1.85%)</title><rect x="53.7" y="149" width="21.9" height="15.0" fill="rgb(224,90,21)" rx="2" ry="2" />
<text  x="56.70" y="159.5" >n..</text>
</g>
<g >
<title>net.setNoDelay (3 samples, 5.56%)</title><rect x="75.6" y="149" width="65.5" height="15.0" fill="rgb(240,164,39)" rx="2" ry="2" />
<text  x="78.56" y="159.5" >net.set..</text>
</g>
<g >
<title>go.uber.org/zap/zapcore.(*CheckedEntry).Write (10 samples, 18.52%)</title><rect x="403.3" y="133" width="218.6" height="15.0" fill="rgb(233,132,31)" rx="2" ry="2" />
<text  x="406.33" y="143.5" >go.uber.org/zap/zapcore.(*Ch..</text>
</g>
<g >
<title>syscall.syscall (1 samples, 1.85%)</title><rect x="403.3" y="37" width="21.9" height="15.0" fill="rgb(208,16,3)" rx="2" ry="2" />
<text  x="406.33" y="47.5" >s..</text>
</g>
<g >
<title>net/http.(*connReader).Read (3 samples, 5.56%)</title><rect x="184.8" y="133" width="65.6" height="15.0" fill="rgb(238,154,36)" rx="2" ry="2" />
<text  x="187.81" y="143.5" >net/htt..</text>
</g>
<g >
<title>net.(*conn).Read (6 samples, 11.11%)</title><rect x="621.9" y="229" width="131.1" height="15.0" fill="rgb(229,113,27)" rx="2" ry="2" />
<text  x="624.85" y="239.5" >net.(*conn).Read</text>
</g>
<g >
<title>net/http.(*response).finishRequest (2 samples, 3.70%)</title><rect x="337.8" y="229" width="43.7" height="15.0" fill="rgb(233,128,30)" rx="2" ry="2" />
<text  x="340.78" y="239.5" >net/..</text>
</g>
<g >
<title>syscall.Write (1 samples, 1.85%)</title><rect x="403.3" y="69" width="21.9" height="15.0" fill="rgb(208,18,4)" rx="2" ry="2" />
<text  x="406.33" y="79.5" >s..</text>
</g>
<g >
<title>runtime.findRunnable (11 samples, 20.37%)</title><rect x="862.2" y="197" width="240.4" height="15.0" fill="rgb(219,64,15)" rx="2" ry="2" />
<text  x="865.22" y="207.5" >runtime.findRunnable</text>
</g>
<g >
<title>memeqbody (1 samples, 1.85%)</title><rect x="163.0" y="165" width="21.8" height="15.0" fill="rgb(242,173,41)" rx="2" ry="2" />
<text  x="165.96" y="175.5" >m..</text>
</g>
<g >
<title>internal/poll.(*pollDesc).init (1 samples, 1.85%)</title><rect x="31.9" y="133" width="21.8" height="15.0" fill="rgb(246,191,45)" rx="2" ry="2" />
<text  x="34.85" y="143.5" >i..</text>
</g>
<g >
<title>syscall.fcntl (1 samples, 1.85%)</title><rect x="10.0" y="101" width="21.9" height="15.0" fill="rgb(231,121,29)" rx="2" ry="2" />
<text  x="13.00" y="111.5" >s..</text>
</g>
<g >
<title>net.(*conn).Close (4 samples, 7.41%)</title><rect x="250.4" y="197" width="87.4" height="15.0" fill="rgb(241,168,40)" rx="2" ry="2" />
<text  x="253.37" y="207.5" >net.(*conn..</text>
</g>
<g >
<title>github.com/gin-gonic/gin.(*Engine).ServeHTTP (11 samples, 20.37%)</title><rect x="381.5" y="213" width="240.4" height="15.0" fill="rgb(225,96,23)" rx="2" ry="2" />
<text  x="384.48" y="223.5" >github.com/gin-gonic/gin.(*Engi..</text>
</g>
<g >
<title>runtime.semawakeup (1 samples, 1.85%)</title><rect x="1168.1" y="165" width="21.9" height="15.0" fill="rgb(234,137,32)" rx="2" ry="2" />
<text  x="1171.15" y="175.5" >r..</text>
</g>
<g >
<title>runtime.pthread_cond_signal (1 samples, 1.85%)</title><rect x="1168.1" y="149" width="21.9" height="15.0" fill="rgb(211,28,6)" rx="2" ry="2" />
<text  x="1171.15" y="159.5" >r..</text>
</g>
<g >
<title>bufio.(*Reader).fill (3 samples, 5.56%)</title><rect x="184.8" y="149" width="65.6" height="15.0" fill="rgb(205,1,0)" rx="2" ry="2" />
<text  x="187.81" y="159.5" >bufio.(..</text>
</g>
<g >
<title>runtime.notesleep (2 samples, 3.70%)</title><rect x="753.0" y="165" width="43.7" height="15.0" fill="rgb(230,119,28)" rx="2" ry="2" />
<text  x="755.96" y="175.5" >runt..</text>
</g>
<g >
<title>syscall.setsockopt (3 samples, 5.56%)</title><rect x="75.6" y="117" width="65.5" height="15.0" fill="rgb(212,33,7)" rx="2" ry="2" />
<text  x="78.56" y="127.5" >syscall..</text>
</g>
<g >
<title>net.(*netFD).Read (3 samples, 5.56%)</title><rect x="184.8" y="101" width="65.6" height="15.0" fill="rgb(253,223,53)" rx="2" ry="2" />
<text  x="187.81" y="111.5" >net.(*n..</text>
</g>
<g >
<title>runtime.schedule (13 samples, 24.07%)</title><rect x="862.2" y="213" width="284.1" height="15.0" fill="rgb(220,72,17)" rx="2" ry="2" />
<text  x="865.22" y="223.5" >runtime.schedule</text>
</g>
<g >
<title>runtime.netpoll (4 samples, 7.41%)</title><rect x="971.5" y="181" width="87.4" height="15.0" fill="rgb(231,119,28)" rx="2" ry="2" />
<text  x="974.48" y="191.5" >runtime.ne..</text>
</g>
<g >
<title>syscall.write (1 samples, 1.85%)</title><rect x="403.3" y="53" width="21.9" height="15.0" fill="rgb(252,217,51)" rx="2" ry="2" />
<text  x="406.33" y="63.5" >s..</text>
</g>
<g >
<title>net.newTCPConn (4 samples, 7.41%)</title><rect x="53.7" y="165" width="87.4" height="15.0" fill="rgb(208,18,4)" rx="2" ry="2" />
<text  x="56.70" y="175.5" >net.newTCP..</text>
</g>
<g >
<title>go.uber.org/zap.(*Logger).check (1 samples, 1.85%)</title><rect x="381.5" y="133" width="21.8" height="15.0" fill="rgb(237,148,35)" rx="2" ry="2" />
<text  x="384.48" y="143.5" >g..</text>
</g>
<g >
<title>net.(*netFD).Write (2 samples, 3.70%)</title><rect x="337.8" y="165" width="43.7" height="15.0" fill="rgb(229,114,27)" rx="2" ry="2" />
<text  x="340.78" y="175.5" >net...</text>
</g>
<g >
<title>syscall.syscall (6 samples, 11.11%)</title><rect x="621.9" y="165" width="131.1" height="15.0" fill="rgb(208,16,3)" rx="2" ry="2" />
<text  x="624.85" y="175.5" >syscall.syscall</text>
</g>
<g >
<title>syscall.syscall (3 samples, 5.56%)</title><rect x="184.8" y="53" width="65.6" height="15.0" fill="rgb(208,16,3)" rx="2" ry="2" />
<text  x="187.81" y="63.5" >syscall..</text>
</g>
<g >
<title>runtime.newproc.func1 (1 samples, 1.85%)</title><rect x="1168.1" y="229" width="21.9" height="15.0" fill="rgb(252,218,52)" rx="2" ry="2" />
<text  x="1171.15" y="239.5" >r..</text>
</g>
<g >
<title>runtime.startm (1 samples, 1.85%)</title><rect x="1168.1" y="197" width="21.9" height="15.0" fill="rgb(220,71,17)" rx="2" ry="2" />
<text  x="1171.15" y="207.5" >r..</text>
</g>
<g >
<title>syscall.read (6 samples, 11.11%)</title><rect x="621.9" y="181" width="131.1" height="15.0" fill="rgb(226,96,23)" rx="2" ry="2" />
<text  x="624.85" y="191.5" >syscall.read</text>
</g>
<g >
<title>net/url.ParseRequestURI (1 samples, 1.85%)</title><rect x="163.0" y="197" width="21.8" height="15.0" fill="rgb(222,79,19)" rx="2" ry="2" />
<text  x="165.96" y="207.5" >n..</text>
</g>
<g >
<title>runtime.mcall (18 samples, 33.33%)</title><rect x="753.0" y="245" width="393.3" height="15.0" fill="rgb(213,40,9)" rx="2" ry="2" />
<text  x="755.96" y="255.5" >runtime.mcall</text>
</g>
<g >
<title>runtime.notewakeup (1 samples, 1.85%)</title><rect x="1168.1" y="181" width="21.9" height="15.0" fill="rgb(231,122,29)" rx="2" ry="2" />
<text  x="1171.15" y="191.5" >r..</text>
</g>
<g >
<title>syscall.Read (3 samples, 5.56%)</title><rect x="184.8" y="85" width="65.6" height="15.0" fill="rgb(232,127,30)" rx="2" ry="2" />
<text  x="187.81" y="95.5" >syscall..</text>
</g>
<g >
<title>runtime.startm (2 samples, 3.70%)</title><rect x="1102.6" y="165" width="43.7" height="15.0" fill="rgb(220,71,17)" rx="2" ry="2" />
<text  x="1105.59" y="175.5" >runt..</text>
</g>
<g >
<title>runtime.gcDrainMarkWorkerIdle (1 samples, 1.85%)</title><rect x="1146.3" y="229" width="21.8" height="15.0" fill="rgb(218,61,14)" rx="2" ry="2" />
<text  x="1149.30" y="239.5" >r..</text>
</g>
<g >
<title>runtime.kevent (4 samples, 7.41%)</title><rect x="971.5" y="165" width="87.4" height="15.0" fill="rgb(211,27,6)" rx="2" ry="2" />
<text  x="974.48" y="175.5" >runtime.ke..</text>
</g>
<g >
<title>syscall.setsockopt (1 samples, 1.85%)</title><rect x="53.7" y="101" width="21.9" height="15.0" fill="rgb(212,33,7)" rx="2" ry="2" />
<text  x="56.70" y="111.5" >s..</text>
</g>
<g >
<title>syscall.Close (4 samples, 7.41%)</title><rect x="250.4" y="117" width="87.4" height="15.0" fill="rgb(244,182,43)" rx="2" ry="2" />
<text  x="253.37" y="127.5" >syscall.Cl..</text>
</g>
<g >
<title>runtime.netpollopen (1 samples, 1.85%)</title><rect x="31.9" y="101" width="21.8" height="15.0" fill="rgb(227,103,24)" rx="2" ry="2" />
<text  x="34.85" y="111.5" >r..</text>
</g>
<g >
<title>runtime.notewakeup (2 samples, 3.70%)</title><rect x="1102.6" y="149" width="43.7" height="15.0" fill="rgb(231,122,29)" rx="2" ry="2" />
<text  x="1105.59" y="159.5" >runt..</text>
</g>
<g >
<title>runtime.notewakeup (1 samples, 1.85%)</title><rect x="862.2" y="133" width="21.9" height="15.0" fill="rgb(231,122,29)" rx="2" ry="2" />
<text  x="865.22" y="143.5" >r..</text>
</g>
<g >
<title>syscall.SetsockoptInt (3 samples, 5.56%)</title><rect x="75.6" y="133" width="65.5" height="15.0" fill="rgb(237,149,35)" rx="2" ry="2" />
<text  x="78.56" y="143.5" >syscall..</text>
</g>
<g >
<title>syscall.syscall (4 samples, 7.41%)</title><rect x="250.4" y="101" width="87.4" height="15.0" fill="rgb(208,16,3)" rx="2" ry="2" />
<text  x="253.37" y="111.5" >syscall.sy..</text>
</g>
<g >
<title>net/http.checkConnErrorWriter.Write (2 samples, 3.70%)</title><rect x="337.8" y="197" width="43.7" height="15.0" fill="rgb(228,106,25)" rx="2" ry="2" />
<text  x="340.78" y="207.5" >net/..</text>
</g>
<g >
<title>github.com/gin-gonic/gin.(*Context).Next (11 samples, 20.37%)</title><rect x="381.5" y="181" width="240.4" height="15.0" fill="rgb(228,106,25)" rx="2" ry="2" />
<text  x="384.48" y="191.5" >github.com/gin-gonic/gin.(*Cont..</text>
</g>
<g >
<title>net.setKeepAliveCount (1 samples, 1.85%)</title><rect x="53.7" y="133" width="21.9" height="15.0" fill="rgb(220,70,16)" rx="2" ry="2" />
<text  x="56.70" y="143.5" >n..</text>
</g>
<g >
<title>net/textproto.(*Reader).ReadLine (3 samples, 5.56%)</title><rect x="184.8" y="213" width="65.6" height="15.0" fill="rgb(208,15,3)" rx="2" ry="2" />
<text  x="187.81" y="223.5" >net/tex..</text>
</g>
<g >
<title>runtime.wakep (1 samples, 1.85%)</title><rect x="862.2" y="165" width="21.9" height="15.0" fill="rgb(216,54,13)" rx="2" ry="2" />
<text  x="865.22" y="175.5" >r..</text>
</g>
<g >
<title>runtime.kevent (1 samples, 1.85%)</title><rect x="31.9" y="85" width="21.8" height="15.0" fill="rgb(211,27,6)" rx="2" ry="2" />
<text  x="34.85" y="95.5" >r..</text>
</g>
<g >
<title>net/http.(*conn).serve.func1 (4 samples, 7.41%)</title><rect x="250.4" y="229" width="87.4" height="15.0" fill="rgb(211,31,7)" rx="2" ry="2" />
<text  x="253.37" y="239.5" >net/http.(..</text>
</g>
<g >
<title>runtime.usleep (2 samples, 3.70%)</title><rect x="1058.9" y="133" width="43.7" height="15.0" fill="rgb(254,228,54)" rx="2" ry="2" />
<text  x="1061.89" y="143.5" >runt..</text>
</g>
<g >
<title>bubble/router.Setup.GinLogger.func4 (11 samples, 20.37%)</title><rect x="381.5" y="165" width="240.4" height="15.0" fill="rgb(222,81,19)" rx="2" ry="2" />
<text  x="384.48" y="175.5" >bubble/router.Setup.GinLogger.f..</text>
</g>
<g >
<title>runtime.pthread_cond_signal (1 samples, 1.85%)</title><rect x="862.2" y="101" width="21.9" height="15.0" fill="rgb(211,28,6)" rx="2" ry="2" />
<text  x="865.22" y="111.5" >r..</text>
</g>
<g >
<title>main.main.func1 (6 samples, 11.11%)</title><rect x="10.0" y="245" width="131.1" height="15.0" fill="rgb(248,200,48)" rx="2" ry="2" />
<text  x="13.00" y="255.5" >main.main.func1</text>
</g>
<g >
<title>runtime.semasleep (4 samples, 7.41%)</title><rect x="884.1" y="149" width="87.4" height="15.0" fill="rgb(234,134,32)" rx="2" ry="2" />
<text  x="887.07" y="159.5" >runtime.se..</text>
</g>
<g >
<title>runtime.goexit0 (5 samples, 9.26%)</title><rect x="753.0" y="229" width="109.2" height="15.0" fill="rgb(231,122,29)" rx="2" ry="2" />
<text  x="755.96" y="239.5" >runtime.goexit0</text>
</g>
<g >
<title>syscall.Write (9 samples, 16.67%)</title><rect x="425.2" y="69" width="196.7" height="15.0" fill="rgb(208,18,4)" rx="2" ry="2" />
<text  x="428.19" y="79.5" >syscall.Write</text>
</g>
<g >
<title>runtime.injectglist (1 samples, 1.85%)</title><rect x="862.2" y="181" width="21.9" height="15.0" fill="rgb(230,118,28)" rx="2" ry="2" />
<text  x="865.22" y="191.5" >r..</text>
</g>
<g >
<title>syscall.syscall (2 samples, 3.70%)</title><rect x="337.8" y="117" width="43.7" height="15.0" fill="rgb(208,16,3)" rx="2" ry="2" />
<text  x="340.78" y="127.5" >sysc..</text>
</g>
<g >
<title>syscall.syscall6 (1 samples, 1.85%)</title><rect x="53.7" y="85" width="21.9" height="15.0" fill="rgb(209,21,5)" rx="2" ry="2" />
<text  x="56.70" y="95.5" >s..</text>
</g>
<g >
<title>runtime.startm (1 samples, 1.85%)</title><rect x="862.2" y="149" width="21.9" height="15.0" fill="rgb(220,71,17)" rx="2" ry="2" />
<text  x="865.22" y="159.5" >r..</text>
</g>
<g >
<title>runtime.mPark (2 samples, 3.70%)</title><rect x="753.0" y="181" width="43.7" height="15.0" fill="rgb(254,226,54)" rx="2" ry="2" />
<text  x="755.96" y="191.5" >runt..</text>
</g>
<g >
<title>net/textproto.(*Reader).readLineSlice (3 samples, 5.56%)</title><rect x="184.8" y="197" width="65.6" height="15.0" fill="rgb(247,195,46)" rx="2" ry="2" />
<text  x="187.81" y="207.5" >net/tex..</text>
</g>
<g >
<title>net.(*conn).Read (3 samples, 5.56%)</title><rect x="184.8" y="117" width="65.6" height="15.0" fill="rgb(229,113,27)" rx="2" ry="2" />
<text  x="187.81" y="127.5" >net.(*c..</text>
</g>
<g >
<title>runtime.stealWork (2 samples, 3.70%)</title><rect x="1058.9" y="181" width="43.7" height="15.0" fill="rgb(253,224,53)" rx="2" ry="2" />
<text  x="1061.89" y="191.5" >runt..</text>
</g>
<g >
<title>net.(*netFD).Close (4 samples, 7.41%)</title><rect x="250.4" y="181" width="87.4" height="15.0" fill="rgb(215,48,11)" rx="2" ry="2" />
<text  x="253.37" y="191.5" >net.(*netF..</text>
</g>
<g >
<title>context.WithCancel.func1 (1 samples, 1.85%)</title><rect x="141.1" y="229" width="21.9" height="15.0" fill="rgb(223,83,20)" rx="2" ry="2" />
<text  x="144.11" y="239.5" >c..</text>
</g>
<g >
<title>net/http.(*conn).serve (22 samples, 40.74%)</title><rect x="141.1" y="245" width="480.8" height="15.0" fill="rgb(240,162,38)" rx="2" ry="2" />
<text  x="144.11" y="255.5" >net/http.(*conn).serve</text>
</g>
<g >
<title>runtime.netpoll (1 samples, 1.85%)</title><rect x="1146.3" y="181" width="21.8" height="15.0" fill="rgb(231,119,28)" rx="2" ry="2" />
<text  x="1149.30" y="191.5" >r..</text>
</g>
<g >
<title>internal/poll.(*SysFile).destroy (4 samples, 7.41%)</title><rect x="250.4" y="133" width="87.4" height="15.0" fill="rgb(206,5,1)" rx="2" ry="2" />
<text  x="253.37" y="143.5" >internal/p..</text>
</g>
<g >
<title>syscall.Read (6 samples, 11.11%)</title><rect x="621.9" y="197" width="131.1" height="15.0" fill="rgb(232,127,30)" rx="2" ry="2" />
<text  x="624.85" y="207.5" >syscall.Read</text>
</g>
<g >
<title>os.(*File).write (1 samples, 1.85%)</title><rect x="403.3" y="85" width="21.9" height="15.0" fill="rgb(248,201,48)" rx="2" ry="2" />
<text  x="406.33" y="95.5" >o..</text>
</g>
<g >
<title>runtime.mPark (4 samples, 7.41%)</title><rect x="884.1" y="181" width="87.4" height="15.0" fill="rgb(254,226,54)" rx="2" ry="2" />
<text  x="887.07" y="191.5" >runtime.mP..</text>
</g>
<g >
<title>runtime.runqsteal (2 samples, 3.70%)</title><rect x="1058.9" y="165" width="43.7" height="15.0" fill="rgb(227,104,24)" rx="2" ry="2" />
<text  x="1061.89" y="175.5" >runt..</text>
</g>
<g >
<title>net/http.readRequest (1 samples, 1.85%)</title><rect x="163.0" y="213" width="21.8" height="15.0" fill="rgb(232,125,30)" rx="2" ry="2" />
<text  x="165.96" y="223.5" >n..</text>
</g>
<g >
<title>syscall.write (9 samples, 16.67%)</title><rect x="425.2" y="53" width="196.7" height="15.0" fill="rgb(252,217,51)" rx="2" ry="2" />
<text  x="428.19" y="63.5" >syscall.write</text>
</g>
<g >
<title>runtime.wakep (2 samples, 3.70%)</title><rect x="1102.6" y="181" width="43.7" height="15.0" fill="rgb(216,54,13)" rx="2" ry="2" />
<text  x="1105.59" y="191.5" >runt..</text>
</g>
<g >
<title>runtime.pthread_cond_signal (2 samples, 3.70%)</title><rect x="1102.6" y="117" width="43.7" height="15.0" fill="rgb(211,28,6)" rx="2" ry="2" />
<text  x="1105.59" y="127.5" >runt..</text>
</g>
<g >
<title>net/http.(*connReader).backgroundRead (6 samples, 11.11%)</title><rect x="621.9" y="245" width="131.1" height="15.0" fill="rgb(216,54,13)" rx="2" ry="2" />
<text  x="624.85" y="255.5" >net/http.(*connR..</text>
</g>
<g >
<title>runtime.schedule (5 samples, 9.26%)</title><rect x="753.0" y="213" width="109.2" height="15.0" fill="rgb(220,72,17)" rx="2" ry="2" />
<text  x="755.96" y="223.5" >runtime.sched..</text>
</g>
<g >
<title>go.uber.org/zap/zapcore.(*ioCore).Write (10 samples, 18.52%)</title><rect x="403.3" y="117" width="218.6" height="15.0" fill="rgb(209,21,5)" rx="2" ry="2" />
<text  x="406.33" y="127.5" >go.uber.org/zap/zapcore.(*io..</text>
</g>
<g >
<title>internal/poll.accept (1 samples, 1.85%)</title><rect x="10.0" y="133" width="21.9" height="15.0" fill="rgb(233,133,31)" rx="2" ry="2" />
<text  x="13.00" y="143.5" >i..</text>
</g>
<g >
<title>syscall.SetNonblock (1 samples, 1.85%)</title><rect x="10.0" y="117" width="21.9" height="15.0" fill="rgb(239,158,37)" rx="2" ry="2" />
<text  x="13.00" y="127.5" >s..</text>
</g>
<g >
<title>syscall.SetsockoptInt (1 samples, 1.85%)</title><rect x="53.7" y="117" width="21.9" height="15.0" fill="rgb(237,149,35)" rx="2" ry="2" />
<text  x="56.70" y="127.5" >s..</text>
</g>
<g >
<title>runtime.netpoll (3 samples, 5.56%)</title><rect x="796.7" y="181" width="65.5" height="15.0" fill="rgb(231,119,28)" rx="2" ry="2" />
<text  x="799.67" y="191.5" >runtime..</text>
</g>
<g >
<title>net/http.(*Server).ListenAndServe (6 samples, 11.11%)</title><rect x="10.0" y="229" width="131.1" height="15.0" fill="rgb(247,196,46)" rx="2" ry="2" />
<text  x="13.00" y="239.5" >net/http.(*Serve..</text>
</g>
<g >
<title>bufio.(*Reader).ReadLine (3 samples, 5.56%)</title><rect x="184.8" y="181" width="65.6" height="15.0" fill="rgb(250,211,50)" rx="2" ry="2" />
<text  x="187.81" y="191.5" >bufio.(..</text>
</g>
<g >
<title>syscall.syscall (9 samples, 16.67%)</title><rect x="425.2" y="37" width="196.7" height="15.0" fill="rgb(208,16,3)" rx="2" ry="2" />
<text  x="428.19" y="47.5" >syscall.syscall</text>
</g>
<g >
<title>bufio.(*Reader).ReadSlice (3 samples, 5.56%)</title><rect x="184.8" y="165" width="65.6" height="15.0" fill="rgb(229,110,26)" rx="2" ry="2" />
<text  x="187.81" y="175.5" >bufio.(..</text>
</g>
<g >
<title>runtime.semawakeup (1 samples, 1.85%)</title><rect x="862.2" y="117" width="21.9" height="15.0" fill="rgb(234,137,32)" rx="2" ry="2" />
<text  x="865.22" y="127.5" >r..</text>
</g>
<g >
<title>net/http.(*conn).readRequest (4 samples, 7.41%)</title><rect x="163.0" y="229" width="87.4" height="15.0" fill="rgb(212,35,8)" rx="2" ry="2" />
<text  x="165.96" y="239.5" >net/http.(..</text>
</g>
<g >
<title>net.(*conn).Write (2 samples, 3.70%)</title><rect x="337.8" y="181" width="43.7" height="15.0" fill="rgb(206,4,1)" rx="2" ry="2" />
<text  x="340.78" y="191.5" >net...</text>
</g>
<g >
<title>internal/poll.(*FD).Close (4 samples, 7.41%)</title><rect x="250.4" y="165" width="87.4" height="15.0" fill="rgb(238,155,37)" rx="2" ry="2" />
<text  x="253.37" y="175.5" >internal/p..</text>
</g>
<g >
<title>internal/poll.(*FD).Init (1 samples, 1.85%)</title><rect x="31.9" y="149" width="21.8" height="15.0" fill="rgb(221,77,18)" rx="2" ry="2" />
<text  x="34.85" y="159.5" >i..</text>
</g>
<g >
<title>gopkg.in/natefinch/lumberjack%2ev2.(*Logger).Write (9 samples, 16.67%)</title><rect x="425.2" y="101" width="196.7" height="15.0" fill="rgb(243,176,42)" rx="2" ry="2" />
<text  x="428.19" y="111.5" >gopkg.in/natefinch/lumber..</text>
</g>
<g >
<title>github.com/gin-gonic/gin.(*Engine).handleHTTPRequest (11 samples, 20.37%)</title><rect x="381.5" y="197" width="240.4" height="15.0" fill="rgb(247,197,47)" rx="2" ry="2" />
<text  x="384.48" y="207.5" >github.com/gin-gonic/gin.(*Engi..</text>
</g>
<g >
<title>runtime.kevent (1 samples, 1.85%)</title><rect x="1146.3" y="165" width="21.8" height="15.0" fill="rgb(211,27,6)" rx="2" ry="2" />
<text  x="1149.30" y="175.5" >r..</text>
</g>
<g >
<title>net.(*TCPListener).accept (6 samples, 11.11%)</title><rect x="10.0" y="181" width="131.1" height="15.0" fill="rgb(225,95,22)" rx="2" ry="2" />
<text  x="13.00" y="191.5" >net.(*TCPListene..</text>
</g>
<g >
<title>net.(*TCPListener).Accept (6 samples, 11.11%)</title><rect x="10.0" y="197" width="131.1" height="15.0" fill="rgb(232,126,30)" rx="2" ry="2" />
<text  x="13.00" y="207.5" >net.(*TCPListene..</text>
</g>
<g >
<title>go.uber.org/zap/zapcore.(*lockedWriteSyncer).Write (1 samples, 1.85%)</title><rect x="403.3" y="101" width="21.9" height="15.0" fill="rgb(214,43,10)" rx="2" ry="2" />
<text  x="406.33" y="111.5" >g..</text>
</g>
<g >
<title>runtime.systemstack (2 samples, 3.70%)</title><rect x="1146.3" y="245" width="43.7" height="15.0" fill="rgb(206,6,1)" rx="2" ry="2" />
<text  x="1149.30" y="255.5" >runt..</text>
</g>
<g >
<title>runtime.resetspinning (2 samples, 3.70%)</title><rect x="1102.6" y="197" width="43.7" height="15.0" fill="rgb(225,95,22)" rx="2" ry="2" />
<text  x="1105.59" y="207.5" >runt..</text>
</g>
<g >
<title>runtime.pthread_cond_wait (4 samples, 7.41%)</title><rect x="884.1" y="133" width="87.4" height="15.0" fill="rgb(209,21,5)" rx="2" ry="2" />
<text  x="887.07" y="143.5" >runtime.pt..</text>
</g>
<g >
<title>runtime.pollWork (1 samples, 1.85%)</title><rect x="1146.3" y="197" width="21.8" height="15.0" fill="rgb(236,146,34)" rx="2" ry="2" />
<text  x="1149.30" y="207.5" >r..</text>
</g>
<g >
<title>syscall.Write (2 samples, 3.70%)</title><rect x="337.8" y="149" width="43.7" height="15.0" fill="rgb(208,18,4)" rx="2" ry="2" />
<text  x="340.78" y="159.5" >sysc..</text>
</g>
<g >
<title>net.(*netFD).Read (6 samples, 11.11%)</title><rect x="621.9" y="213" width="131.1" height="15.0" fill="rgb(253,223,53)" rx="2" ry="2" />
<text  x="624.85" y="223.5" >net.(*netFD).Read</text>
</g>
<g >
<title>runtime.notesleep (4 samples, 7.41%)</title><rect x="884.1" y="165" width="87.4" height="15.0" fill="rgb(230,119,28)" rx="2" ry="2" />
<text  x="887.07" y="175.5" >runtime.no..</text>
</g>
<g >
<title>internal/poll.runtime_pollOpen (1 samples, 1.85%)</title><rect x="31.9" y="117" width="21.8" height="15.0" fill="rgb(231,121,29)" rx="2" ry="2" />
<text  x="34.85" y="127.5" >i..</text>
</g>
<g >
<title>runtime.wakep (1 samples, 1.85%)</title><rect x="1168.1" y="213" width="21.9" height="15.0" fill="rgb(216,54,13)" rx="2" ry="2" />
<text  x="1171.15" y="223.5" >r..</text>
</g>
</g>
</svg>
